<svg xmlns="http://www.w3.org/2000/svg" xmlns:xlink="http://www.w3.org/1999/xlink" width="500" zoomAndPan="magnify" viewBox="0 0 375 374.999991" height="500" preserveAspectRatio="xMidYMid meet" version="1.0"><defs><clipPath id="6191fbfacc"><path d="M 12 12.9375 L 362 12.9375 L 362 360 L 12 360 Z M 12 12.9375 " clip-rule="nonzero"/></clipPath></defs><g clip-path="url(#6191fbfacc)"><path fill="#00e0ff" d="M 136.710938 42.421875 L 136.710938 195.136719 C 169.175781 157.777344 194.984375 128.320312 214.136719 105.914062 C 237.851562 78.121094 275.738281 76.867188 287.378906 112.964844 C 290.296875 129.570312 286.96875 147 278.226562 161.925781 C 287.808594 131.644531 252.007812 111.726562 223.703125 137.871094 L 202.066406 158.613281 C 185.410156 176.457031 167.933594 188.496094 150.863281 194.710938 C 170.847656 196.375 189.570312 207.988281 207.054688 228.316406 L 216.625 241.183594 C 245.769531 215.46875 271.984375 205.089844 295.710938 209.652344 C 324.429688 213.804688 347.742188 233.308594 356.898438 259.863281 C 365.214844 284.347656 361.050781 310.902344 344.828125 331.230469 C 321.101562 360.277344 276.148438 371.066406 240.765625 344.097656 C 229.121094 335.796875 213.296875 312.566406 192.910156 273.96875 C 202.066406 263.589844 211.222656 254.464844 219.964844 247 C 220.378906 247 220.378906 246.585938 220.789062 246.585938 L 244.515625 278.941406 C 257.410156 295.960938 269.90625 308.414062 282.390625 315.054688 C 301.539062 325.832031 322.765625 323.769531 338.160156 312.976562 C 381.039062 282.269531 345.652344 220.03125 295.710938 212.550781 C 272.394531 207.988281 246.59375 218.367188 217.875 242.847656 C 209.132812 250.3125 199.976562 259.453125 190.820312 269.816406 C 189.15625 271.890625 187.082031 273.96875 185.410156 276.042969 C 169.175781 293.0625 152.527344 305.5 136.710938 313.390625 C 130.050781 316.292969 123.808594 318.777344 117.148438 320.441406 C 96.757812 325.832031 76.363281 323.769531 55.96875 314.628906 C 22.671875 296.785156 6.019531 259.027344 15.183594 222.929688 C 24.335938 186.421875 57.214844 160.691406 94.675781 160.691406 C 95.09375 160.691406 95.507812 160.691406 95.925781 160.691406 L 95.925781 22.519531 L 68.039062 22.519531 L 68.039062 12.964844 L 136.710938 12.964844 Z M 95.925781 320.441406 L 95.925781 163.179688 L 95.503906 163.179688 C 58.882812 163.179688 27.25 187.660156 18.507812 222.929688 C 9.351562 258.203125 25.582031 295.136719 57.632812 312.140625 C 70.535156 317.542969 83.023438 320.441406 95.925781 320.441406 Z M 189.570312 268.152344 C 186.660156 262.355469 183.746094 256.539062 180.832031 250.3125 C 166.269531 222.519531 151.285156 206.753906 136.710938 202.601562 L 136.710938 310.0625 C 152.527344 302.601562 169.175781 290.148438 185.410156 273.144531 C 186.664062 271.480469 188.320312 269.40625 189.570312 268.152344 Z M 189.570312 268.152344 " fill-opacity="1" fill-rule="evenodd"/></g></svg>