<svg xmlns="http://www.w3.org/2000/svg" xmlns:xlink="http://www.w3.org/1999/xlink" width="500" zoomAndPan="magnify" viewBox="0 0 375 374.999991" height="500" preserveAspectRatio="xMidYMid meet" version="1.0"><defs><g/></defs><path stroke-linecap="butt" transform="matrix(0.791178, 0, 0, 0.791178, -121.255111, 31.646413)" fill="none" stroke-linejoin="miter" d="M 321.797138 353.00164 L 321.797138 32.988375 L 367.792626 32.988375 L 367.402583 105.447562 L 360.273183 186.206279 L 368.671458 186.206279 L 391.032296 106.227649 L 416.617163 32.988375 L 463.782781 32.988375 L 413.398071 170.584797 L 467.786897 353.00164 L 423.455264 353.00164 L 385.077964 219.409334 L 366.227515 264.624735 L 366.227515 353.00164 Z M 321.797138 353.00164 " stroke="#800000" stroke-width="29.999325" stroke-opacity="1" stroke-miterlimit="4"/><g fill="#ff3131" fill-opacity="1"><g transform="translate(118.818006, 310.932296)"><g><path d="M 14.5625 0 L 14.5625 -253.171875 L 50.953125 -253.171875 L 50.640625 -195.890625 L 44.9375 -131.96875 L 51.578125 -131.96875 L 69.3125 -195.265625 L 89.5625 -253.171875 L 126.90625 -253.171875 L 87.03125 -144.3125 L 130.0625 0 L 94.9375 0 L 64.5625 -105.703125 L 49.6875 -69.9375 L 49.6875 0 Z M 14.5625 0 "/></g></g></g></svg>